# Blender v2.78 (sub 0) OBJ File: 'Missile1.blend'
# www.blender.org
mtllib Missile1.mtl
g Missile1
v -0.054000 -0.000000 0.360000
v -0.198000 -0.000000 -0.126000
v -0.198648 -0.000000 -0.126558
v -0.168678 0.010800 -0.252149
v -0.341019 0.010800 -0.128364
v -0.604077 -0.002700 -0.434511
v -0.168678 -0.010800 -0.252149
v -0.341019 -0.010800 -0.128364
v -0.090000 -0.000000 -0.396000
v 0.000000 -0.198000 -0.126000
v -0.000000 -0.054000 0.360000
v -0.000000 0.198000 -0.126000
v 0.054000 -0.000000 0.360000
v 0.000000 -0.090000 -0.396000
v -0.000000 0.054000 0.360000
v 0.198000 -0.000000 -0.126000
v 0.198648 -0.000000 -0.126558
v 0.168678 0.010800 -0.252149
v 0.341019 0.010800 -0.128364
v 0.604077 -0.002700 -0.434511
v 0.168678 -0.010800 -0.252149
v 0.341019 -0.010800 -0.128364
v 0.000000 0.090000 -0.396000
v 0.090000 -0.000000 -0.396000
vt 0.8811 0.4690
vt 0.8654 0.4681
vt 0.8446 0.3677
vt 0.9274 0.3677
vt 0.0790 0.2517
vt 0.1138 0.2508
vt 0.1461 0.3012
vt 0.0633 0.3012
vt 0.3440 0.0862
vt 0.4384 0.1979
vt 0.4225 0.0291
vt 0.9010 0.2837
vt 0.5821 0.4712
vt 0.8362 0.2285
vt 0.0187 0.9291
vt 0.0614 0.7805
vt 0.1177 0.9696
vt 0.7307 0.0194
vt 0.8241 0.1984
vt 0.9309 0.2967
vt 0.9054 0.1268
vt 0.2170 0.6991
vt 0.3918 0.8065
vt 0.3104 0.8781
vt 0.4341 0.2225
vt 0.4510 0.2756
vt 0.3621 0.2756
vt 0.3968 0.2215
vt 0.6945 0.0861
vt 0.6825 0.0763
vt 0.5328 0.0485
vt 0.5574 0.2291
vt 0.8811 0.4690
vt 0.9274 0.3677
vt 0.1461 0.3012
vt 0.1138 0.2508
vt 0.4384 0.1979
vt 0.9010 0.2837
vt 0.8362 0.2285
vt 0.5821 0.4712
vt 0.0187 0.9291
vt 0.1177 0.9696
vt 0.0614 0.7805
vt 0.7307 0.0194
vt 0.8241 0.1984
vt 0.9309 0.2967
vt 0.9054 0.1268
vt 0.2170 0.6991
vt 0.3104 0.8781
vt 0.3918 0.8065
vt 0.3968 0.2215
vt 0.3621 0.2756
vt 0.6945 0.0861
vt 0.5574 0.2291
vt 0.3659 0.3955
vt 0.0925 0.4031
vt 0.3092 0.1280
vt 0.3659 0.3955
vn -0.6921 0.6921 0.2051
vn -0.6804 0.6804 -0.2722
vn 0.0000 0.0000 1.0000
vn -0.0196 0.9994 -0.0273
vn 0.0739 0.9919 0.1029
vn -0.0117 -0.9998 -0.0164
vn 0.9727 -0.0000 0.2321
vn 0.3863 -0.0000 -0.9224
vn 0.0739 -0.9919 0.1029
vn -0.0127 0.0000 0.9999
vn -0.7585 0.0000 0.6517
vn -0.6804 -0.6804 -0.2722
vn -0.6921 -0.6921 0.2051
vn 0.6921 0.6921 0.2051
vn 0.6804 0.6804 -0.2722
vn 0.0196 0.9994 -0.0273
vn -0.0739 0.9919 0.1029
vn 0.0117 -0.9998 -0.0164
vn -0.9727 -0.0000 0.2321
vn -0.3863 -0.0000 -0.9224
vn -0.0739 -0.9919 0.1029
vn 0.0127 0.0000 0.9999
vn 0.7585 0.0000 0.6517
vn 0.6804 -0.6804 -0.2722
vn 0.6921 -0.6921 0.2051
vn 0.0000 0.0000 -1.0000
usemtl Material
s off
f 1/1/1 15/2/1 12/3/1 2/4/1
f 23/5/2 9/6/2 2/7/2 12/8/2
f 15/9/3 1/10/3 11/11/3
f 4/12/4 6/13/4 5/14/4
f 5/15/5 3/16/5 4/17/5
f 7/18/6 8/19/6 6/13/6
f 7/20/7 4/12/7 3/21/7
f 7/20/8 6/13/8 4/12/8
f 7/22/9 3/23/9 8/24/9
f 3/21/10 5/14/10 8/19/10
f 8/19/11 5/14/11 6/13/11
f 14/25/12 10/26/12 2/27/12 9/28/12
f 2/29/13 10/30/13 11/31/13 1/32/13
f 13/33/14 16/34/14 12/3/14 15/2/14
f 23/5/15 12/8/15 16/35/15 24/36/15
f 15/9/3 11/11/3 13/37/3
f 18/38/16 19/39/16 20/40/16
f 19/41/17 18/42/17 17/43/17
f 21/44/18 20/40/18 22/45/18
f 21/46/19 17/47/19 18/38/19
f 21/46/20 18/38/20 20/40/20
f 21/48/21 22/49/21 17/50/21
f 17/47/22 22/45/22 19/39/22
f 22/45/23 20/40/23 19/39/23
f 14/25/24 24/51/24 16/52/24 10/26/24
f 16/53/25 13/54/25 11/31/25 10/30/25
usemtl Engine
f 9/55/26 23/56/26 14/57/26
f 24/58/26 14/57/26 23/56/26
