# Blender v2.78 (sub 0) OBJ File: 'Elemental Dart.blend'
# www.blender.org
mtllib Elemental Dart.mtl
g Dart
v -0.000000 0.300000 0.000000
v 0.250000 -0.000000 0.250000
v -0.250000 0.000000 0.250000
v -0.679147 0.086771 -0.336771
v -0.726515 0.644783 -0.894783
v -0.372961 0.335514 -0.338027
v -0.000000 -0.300000 0.000000
v -0.250000 -0.000000 -0.250000
v -0.679147 -0.086771 -0.336771
v -0.726515 -0.644784 -0.894783
v -0.372961 -0.335514 -0.338027
v 0.679147 0.086771 -0.336771
v 0.726514 0.644783 -0.894783
v 0.372961 0.335514 -0.338027
v 0.250000 -0.000000 -0.250000
v 0.679147 -0.086771 -0.336771
v 0.726514 -0.644784 -0.894783
v 0.372961 -0.335514 -0.338027
vt 0.3303 0.2675
vt 0.4352 0.3658
vt 0.3430 0.4642
vt 0.7706 0.2412
vt 0.8755 0.1428
vt 0.9676 0.2412
vt 0.8755 0.3395
vt 0.9804 0.4378
vt 0.7833 0.4378
vt 0.7833 0.0445
vt 0.9804 0.0445
vt 0.8923 0.0179
vt 0.9693 0.3244
vt 0.8923 0.4642
vt 0.8703 0.3759
vt 0.9844 0.4682
vt 0.7802 0.4689
vt 0.1184 0.7929
vt 0.0284 0.8859
vt 0.0728 0.6195
vt 0.8658 0.0192
vt 0.8657 0.4655
vt 0.7887 0.3257
vt 0.8687 0.3066
vt 0.7907 0.2033
vt 0.9932 0.2289
vt 0.3555 0.8042
vt 0.2891 0.9707
vt 0.2775 0.7009
vt 0.8641 0.0212
vt 0.8638 0.4675
vt 0.7869 0.3276
vt 0.8840 0.2913
vt 0.9744 0.3840
vt 0.7702 0.3841
vt 0.1321 0.7083
vt 0.1770 0.5348
vt 0.2226 0.8010
vt 0.8905 0.0179
vt 0.9675 0.3243
vt 0.8905 0.4642
vt 0.8978 0.1158
vt 0.7867 0.0198
vt 0.9908 0.0258
vt 0.3847 0.6134
vt 0.4777 0.5234
vt 0.4246 0.7882
vt 0.4037 0.5736
vt 0.4613 0.7086
vt 0.4205 0.8832
vt 0.4023 0.5792
vt 0.4046 0.8893
vt 0.3531 0.7175
vt 0.3452 0.9571
vt 0.3331 0.6473
vt 0.3900 0.8173
vt 0.3369 0.8667
vt 0.2819 0.7306
vt 0.3261 0.5569
vn -0.0000 0.6402 0.7682
vn -0.7682 -0.6402 -0.0000
vn 0.7682 0.6402 0.0000
vn -0.7682 0.6402 -0.0000
vn 0.0000 0.6402 -0.7682
vn 0.8738 0.2044 -0.4413
vn 0.0000 -0.6402 -0.7682
vn -0.0000 -0.6402 0.7682
vn 0.7682 -0.6402 0.0000
vn -0.1559 0.1968 0.9680
vn -0.4833 0.5982 0.6392
vn 0.8738 -0.2044 -0.4413
vn -0.1559 -0.1968 0.9680
vn -0.4833 -0.5982 0.6392
vn -0.8738 0.2044 -0.4413
vn 0.1559 0.1968 0.9680
vn 0.4833 0.5982 0.6392
vn -0.8738 -0.2044 -0.4413
vn 0.1559 -0.1968 0.9680
vn 0.4833 -0.5982 0.6392
vn 0.0000 -0.7071 -0.7071
vn 0.0000 0.7071 -0.7071
usemtl Material
s off
f 3/1/1 2/2/1 1/3/1
f 3/4/2 8/5/2 7/6/2
f 2/7/3 15/8/3 1/9/3
f 8/5/4 3/4/4 1/10/4
f 15/11/5 8/5/5 1/10/5
f 5/12/6 6/13/6 8/14/6
f 8/5/7 15/11/7 7/6/7
f 2/7/8 3/4/8 7/6/8
f 15/8/9 2/7/9 7/6/9
f 4/15/10 8/16/10 6/17/10
f 4/18/11 6/19/11 5/20/11
f 10/21/12 8/22/12 11/23/12
f 9/24/13 11/25/13 8/26/13
f 9/27/14 10/28/14 11/29/14
f 13/30/15 15/31/15 14/32/15
f 12/33/16 14/34/16 15/35/16
f 12/36/17 13/37/17 14/38/17
f 17/39/18 18/40/18 15/41/18
f 16/42/19 15/43/19 18/44/19
f 16/45/20 18/46/20 17/47/20
usemtl Engine
f 8/48/21 4/49/21 5/50/21
f 8/51/22 10/52/22 9/53/22
f 15/54/21 13/55/21 12/56/21
f 15/57/22 16/58/22 17/59/22
