# Blender v2.78 (sub 0) OBJ File: 'Elemental Cutlass.blend'
# www.blender.org
mtllib Elemental Cutlass.mtl
g Cutlass
v -0.000000 0.300000 -0.200000
v 0.250000 -0.000000 0.950000
v -0.250000 0.000000 0.950000
v -0.679147 0.086771 -0.563229
v -0.726515 0.644783 0.294783
v -0.372961 0.335514 -0.561973
v -0.000000 -0.200000 -0.200000
v -0.250000 -0.000000 -0.650000
v -0.679147 -0.086771 -0.563229
v -0.726515 -0.644784 -0.305217
v -0.372961 -0.335514 -0.561973
v 0.679147 0.086771 -0.563229
v 0.726514 0.644783 0.294783
v 0.372961 0.335514 -0.561973
v 0.250000 -0.000000 -0.650000
v 0.679147 -0.086771 -0.563229
v 0.726514 -0.644784 -0.305217
v 0.372961 -0.335514 -0.561973
v 0.464574 -0.247458 -0.997966
v -0.464574 -0.247458 -0.997966
v -0.464574 0.247458 -0.997966
v 0.464574 0.247458 -0.997966
v -0.464574 -0.247458 -0.997966
v -0.464574 -0.247458 -0.997966
v 0.464574 -0.247458 -0.997966
v 0.464574 -0.247458 -0.997966
vt 0.3303 0.2675
vt 0.4352 0.3658
vt 0.3430 0.4642
vt 0.7706 0.2412
vt 0.8755 0.1428
vt 0.9676 0.2412
vt 0.8755 0.3395
vt 0.9804 0.4378
vt 0.7833 0.4378
vt 0.7833 0.0445
vt 0.9804 0.0445
vt 0.8923 0.0179
vt 0.8923 0.4642
vt 0.9693 0.3244
vt 0.8923 0.4642
vt 0.6222 0.8022
vt 0.5766 0.6288
vt 0.5322 0.8952
vt 0.8658 0.0192
vt 0.7887 0.3257
vt 0.8657 0.4655
vt 0.3555 0.8042
vt 0.2775 0.7009
vt 0.2891 0.9707
vt 0.8641 0.0212
vt 0.7869 0.3276
vt 0.8638 0.4675
vt 0.7869 0.3276
vt 0.6359 0.7176
vt 0.7264 0.8103
vt 0.6808 0.5441
vt 0.8905 0.0179
vt 0.8905 0.4642
vt 0.9675 0.3243
vt 0.7887 0.3257
vt 0.8657 0.4655
vt 0.3847 0.6134
vt 0.4246 0.7882
vt 0.4777 0.5234
vt 0.8978 0.1158
vt 0.9908 0.0258
vt 0.7867 0.0198
vt 0.8687 0.3066
vt 0.9932 0.2289
vt 0.7907 0.2033
vt 0.6578 0.9231
vt 0.5322 0.8952
vt 0.6623 0.8556
vt 0.6359 0.7176
vt 0.4777 0.5234
vt 0.3847 0.6134
vt 0.3555 0.8042
vt 0.2775 0.7009
vt 0.8905 0.4642
vt 0.9675 0.3243
vt 0.1572 0.5721
vt 0.1740 0.8816
vt 0.2148 0.7071
vt 0.1558 0.5777
vt 0.1066 0.7160
vt 0.1581 0.8877
vt 0.4023 0.5792
vt 0.4023 0.5792
vt 0.3531 0.7175
vt 0.3531 0.7175
vt 0.0987 0.9555
vt 0.1435 0.8158
vt 0.0866 0.6458
vt 0.0904 0.8652
vt 0.0797 0.5553
vt 0.0354 0.7291
vt 0.3452 0.9571
vt 0.3452 0.9571
vt 0.3900 0.8173
vt 0.4613 0.7086
vt 0.4613 0.7086
vt 0.4037 0.5736
vt 0.2819 0.7306
vt 0.2819 0.7306
vt 0.3369 0.8667
vt 0.3369 0.8667
vn 0.0000 0.9676 0.2524
vn -0.6247 -0.7809 -0.0000
vn 0.7682 0.6402 0.0000
vn -0.7682 0.6402 -0.0000
vn 0.0000 0.8321 -0.5547
vn 0.9216 0.2629 0.2854
vn 0.0000 -0.9138 -0.4061
vn -0.0000 -0.9852 0.1713
vn 0.6247 -0.7809 0.0000
vn 0.8811 0.3923 -0.2644
vn -0.5536 0.6838 -0.4753
vn 0.5902 -0.0045 0.8073
vn -0.3039 -0.3785 -0.8743
vn -0.9216 0.2629 0.2854
vn -0.8811 0.3923 -0.2644
vn 0.5536 0.6838 -0.4753
vn -0.5902 -0.0045 0.8073
vn 0.8811 -0.3923 -0.2644
vn 0.3039 -0.3785 -0.8743
vn 0.0000 0.0000 1.0000
vn -0.6303 0.7760 -0.0243
vn 0.6303 0.7760 -0.0243
vn 0.6303 -0.7760 -0.0243
vn -0.6303 -0.7760 -0.0243
vn -0.8811 -0.3923 -0.2644
vn -0.0599 -0.8383 0.5419
vn 0.1002 0.4105 0.9063
vn -0.2632 0.8554 -0.4461
vn 0.0599 -0.8383 0.5419
vn -0.1002 0.4105 0.9063
vn 0.2632 -0.8554 -0.4461
vn -0.2632 -0.8554 -0.4461
vn 0.2632 0.8554 -0.4461
usemtl Material
s off
f 3/1/1 2/2/1 1/3/1
f 3/4/2 8/5/2 7/6/2
f 2/7/3 15/8/3 1/9/3
f 8/5/4 3/4/4 1/10/4
f 15/11/5 8/5/5 1/10/5
f 5/12/6 8/13/6 6/14/6
f 8/5/7 15/11/7 7/6/7
f 2/7/8 3/4/8 7/6/8
f 15/8/9 2/7/9 7/6/9
f 8/13/10 21/15/10 6/14/10
f 4/16/11 5/17/11 6/18/11
f 10/19/12 11/20/12 8/21/12
f 9/22/13 11/23/13 10/24/13
f 13/25/14 14/26/14 15/27/14
f 14/26/15 22/28/15 15/27/15
f 12/29/16 14/30/16 13/31/16
f 17/32/17 15/33/17 18/34/17
f 11/20/18 23/35/18 20/36/18 8/21/18
f 16/37/19 17/38/19 18/39/19
f 19/40/20 25/41/20 26/42/20
f 24/43/20 20/44/20 23/45/20
f 6/46/21 21/47/21 4/16/21
f 12/48/22 22/49/22 14/30/22
f 18/39/23 25/50/23 19/51/23 16/37/23
f 9/22/24 24/52/24 23/53/24 11/23/24
f 15/33/25 26/54/25 25/55/25 18/34/25
usemtl Engine
f 8/56/26 5/57/26 4/58/26
f 8/59/27 9/60/27 10/61/27
f 8/62/28 20/63/28 24/64/28 9/65/28
f 15/66/29 12/67/29 13/68/29
f 15/69/30 17/70/30 16/71/30
f 15/72/31 22/73/31 12/74/31
f 4/75/32 21/76/32 8/77/32
f 16/78/33 19/79/33 26/80/33 15/81/33
