# Blender v2.78 (sub 0) OBJ File: 'SpaceJunk4.blend'
# www.blender.org
g SpaceJunk4
v -0.276577 -0.063985 0.200751
v 0.203435 -0.252771 -0.048152
v 0.306158 -0.152328 0.274850
v -0.097277 -0.157051 0.412862
v -0.196565 -0.252771 -0.048152
v 0.203435 0.147229 -0.048152
v 0.255630 0.143245 0.156769
v -0.103961 0.178408 0.289167
v -0.196565 0.147229 -0.048152
v 0.329922 -0.122886 0.000848
v -0.012321 -0.295175 0.241631
v 0.228397 -0.183372 -0.332316
v -0.196565 -0.252771 -0.301885
v 0.175310 -0.023879 -0.368721
v -0.101914 0.054266 -0.325911
vt 0.6030 0.2939
vt 0.5873 0.3259
vt 0.5811 0.2698
vt 0.6262 0.2685
vt 0.6353 0.3123
vt 0.6967 0.3035
vt 0.6833 0.3263
vt 0.5959 0.3564
vt 0.5829 0.4010
vt 0.5357 0.4442
vt 0.5312 0.4010
vt 0.6581 0.2749
vt 0.5830 0.4010
vt 0.6220 0.4288
vt 0.5830 0.4495
vt 0.5822 0.4401
vt 0.7386 0.3497
vt 0.7198 0.3357
vt 0.7368 0.3056
vt 0.6814 0.4010
vt 0.6814 0.4495
vt 0.6650 0.4168
vt 0.5648 0.2921
vt 0.5312 0.2685
vt 0.5404 0.3271
vt 0.6220 0.4386
vt 0.6419 0.4010
vt 0.6649 0.4386
vt 0.3308 0.3562
vt 0.3540 0.3884
vt 0.3174 0.3790
vt 0.6420 0.3865
vt 0.6261 0.4010
vt 0.6357 0.3508
vt 0.6672 0.3689
vt 0.5392 0.3395
vt 0.5455 0.3756
vt 0.3036 0.1821
vt 0.3040 0.2205
vt 0.2641 0.2262
vt 0.6178 0.4084
vn -0.6861 -0.6687 0.2866
vn -0.6873 0.2392 0.6859
vn -0.0000 0.9998 0.0194
vn -1.0000 0.0000 -0.0000
vn 0.3014 0.3352 0.8926
vn -0.9520 0.0000 -0.3060
vn -0.8311 0.5264 0.1795
vn 0.0575 0.9925 -0.1075
vn 0.9962 0.0000 -0.0874
vn 0.3510 0.3985 0.8474
vn 0.7187 -0.6952 -0.0124
vn 0.3612 0.0000 -0.9325
vn 0.9721 0.2088 0.1067
vn -0.6173 -0.7332 0.2852
vn 0.2404 -0.6938 0.6789
vn 0.0000 -0.9895 -0.1448
vn 0.3904 -0.9070 0.1579
vn 0.8980 0.3803 -0.2213
vn -0.0317 -0.2324 -0.9721
vn -0.1602 -0.0278 -0.9867
vn 0.2293 0.9439 -0.2377
vn 0.1415 -0.9645 -0.2231
vn -0.8900 0.2442 -0.3850
vn 0.9238 0.3453 0.1655
vn 0.0000 0.8822 -0.4709
vn 0.0000 -1.0000 0.0000
s off
f 1/1/1 5/2/1 4/3/1
f 1/1/2 4/3/2 8/4/2
f 9/5/3 7/6/3 6/7/3
f 9/5/4 13/8/4 5/2/4
f 3/9/5 8/10/5 4/11/5
f 1/1/6 9/5/6 5/2/6
f 9/5/7 1/1/7 8/4/7
f 9/5/8 8/12/8 7/6/8
f 2/13/9 14/14/9 6/15/9
f 3/9/10 7/16/10 8/10/10
f 2/17/11 10/18/11 3/19/11
f 2/20/12 6/21/12 10/22/12
f 3/19/13 10/18/13 7/6/13
f 5/2/14 11/23/14 4/3/14
f 4/3/15 11/23/15 3/24/15
f 5/2/16 2/25/16 11/23/16
f 3/26/17 11/27/17 2/28/17
f 7/29/18 10/30/18 6/31/18
f 13/8/19 14/32/19 12/33/19
f 13/8/20 15/34/20 14/32/20
f 9/5/21 14/35/21 15/34/21
f 2/36/22 13/8/22 12/37/22
f 9/38/23 15/39/23 13/40/23
f 2/13/24 12/41/24 14/14/24
f 9/5/25 6/7/25 14/35/25
f 2/36/26 5/2/26 13/8/26
