# Blender v2.78 (sub 0) OBJ File: 'SpaceJunk3.blend'
# www.blender.org
g SpaceJunk3
v -0.689324 -0.022545 0.362857
v 0.270699 -0.400117 -0.134949
v 0.270699 -0.400117 0.665051
v -0.529301 -0.400117 0.665051
v -0.529301 -0.400117 -0.134949
v 0.270699 0.399883 -0.134949
v 0.270699 0.399883 0.665051
v -0.560431 0.197350 0.588571
v -0.529301 0.399883 -0.134949
v 0.523673 -0.140347 -0.036949
v -0.260402 -0.691888 0.378935
v 0.631398 0.568788 -0.134949
v 0.631398 0.568788 0.665051
v 0.884373 0.028558 -0.036948
v 0.270699 -0.400117 -0.867510
v -0.529301 -0.400117 -0.642416
v 0.132325 0.292469 -0.864488
v -0.529301 0.399883 -0.867510
vt 0.3773 0.3266
vt 0.4038 0.2935
vt 0.4029 0.3485
vt 0.6207 0.6444
vt 0.6463 0.6663
vt 0.6050 0.6609
vt 0.1644 0.7759
vt 0.1093 0.8323
vt 0.1087 0.7766
vt 0.3480 0.2935
vt 0.4038 0.2581
vt 0.6718 0.1970
vt 0.6144 0.2386
vt 0.6165 0.1970
vt 0.6238 0.7219
vt 0.5945 0.6888
vt 0.6503 0.6888
vt 0.3616 0.3431
vt 0.1690 0.8281
vt 0.3925 0.3693
vt 0.4431 0.4179
vt 0.3917 0.4246
vt 0.6722 0.2523
vt 0.3276 0.3691
vt 0.3208 0.3941
vt 0.2723 0.3691
vt 0.4784 0.2418
vt 0.4784 0.2971
vt 0.4597 0.2598
vt 0.2773 0.4482
vt 0.2645 0.4238
vt 0.1062 0.5818
vt 0.1329 0.6176
vt 0.1053 0.6369
vt 0.1565 0.6573
vt 0.1600 0.5701
vt 0.1456 0.7037
vt 0.1456 0.6574
vt 0.1956 0.6801
vt 0.5734 0.4544
vt 0.6298 0.4247
vt 0.6274 0.4664
vt 0.4872 0.2417
vt 0.4597 0.1999
vt 0.4872 0.1999
vt 0.2929 0.3499
vt 0.2645 0.2945
vt 0.2923 0.2941
vt 0.6689 0.3806
vt 0.6326 0.3224
vt 0.6818 0.3241
vt 0.6131 0.3649
vt 0.1177 0.7250
vt 0.1644 0.7248
vt 0.1619 0.5818
vt 0.1062 0.5464
vt 0.1619 0.5307
vt 0.3480 0.2424
vt 0.4431 0.3691
vt 0.3337 0.4185
vt 0.4597 0.2417
vt 0.2652 0.3502
vn -0.9207 -0.3902 -0.0000
vn -0.8750 0.0163 0.4838
vn 0.0000 1.0000 -0.0000
vn -1.0000 0.0000 -0.0000
vn -0.0000 0.1270 0.9919
vn -0.9520 0.0000 -0.3060
vn -0.8949 0.4382 0.0842
vn -0.2509 0.9349 0.2509
vn 0.9825 0.0000 -0.1864
vn -0.0916 0.0000 0.9958
vn 0.7164 -0.6977 0.0000
vn 0.3612 0.0000 -0.9325
vn 0.3232 -0.6901 0.6475
vn 0.9408 0.0000 0.3390
vn -0.7353 -0.6777 -0.0000
vn -0.0000 -0.7002 0.7140
vn 0.0000 -0.8696 -0.4937
vn 0.4815 -0.8764 0.0000
vn 0.9056 0.4241 0.0000
vn 0.0687 -0.1468 -0.9868
vn -0.4241 0.9056 -0.0000
vn -0.2705 -0.0499 -0.9614
vn -0.0395 -0.2706 -0.9619
vn 0.1602 0.9871 -0.0000
vn 0.0000 -1.0000 -0.0000
vn 0.9806 0.1959 0.0000
vn 0.0000 0.9893 -0.1457
s off
f 1/1/1 5/2/1 4/3/1
f 1/4/2 4/5/2 8/6/2
f 9/7/3 7/8/3 6/9/3
f 9/10/4 16/11/4 5/2/4
f 3/12/5 8/13/5 4/14/5
f 1/15/6 9/16/6 5/17/6
f 9/10/7 1/1/7 8/18/7
f 9/7/8 8/19/8 7/8/8
f 2/20/9 17/21/9 6/22/9
f 3/12/10 7/23/10 8/13/10
f 2/24/11 10/25/11 3/26/11
f 2/27/12 6/28/12 10/29/12
f 10/25/13 13/30/13 7/31/13
f 3/26/14 10/25/14 7/31/14
f 5/32/15 11/33/15 4/34/15
f 4/34/16 11/33/16 3/35/16
f 5/32/17 2/36/17 11/33/17
f 3/37/18 11/38/18 2/39/18
f 13/40/19 14/41/19 12/42/19
f 6/43/20 14/44/20 10/45/20
f 7/46/21 12/47/21 6/48/21
f 16/49/22 17/50/22 15/51/22
f 16/49/23 18/52/23 17/50/23
f 9/7/24 17/53/24 18/54/24
f 2/55/25 16/56/25 15/57/25
f 9/10/4 18/58/4 16/11/4
f 2/20/26 15/59/26 17/21/26
f 10/25/13 14/60/13 13/30/13
f 6/43/20 12/61/20 14/44/20
f 7/46/21 13/62/21 12/47/21
f 9/7/27 6/9/27 17/53/27
f 2/55/25 5/32/25 16/56/25
