# Blender v2.78 (sub 0) OBJ File: 'SpaceJunk5.blend'
# www.blender.org
g SpaceJunk5
v -1.376776 -2.048843 -0.608740
v -1.147930 -1.958956 0.539944
v -1.904773 -1.784256 0.785341
v -1.947930 -1.958956 -0.260056
v -1.300000 1.500000 -0.400000
v -1.300000 1.500000 0.400000
v -2.100000 1.500000 0.400000
v -2.100000 1.500000 -0.400000
v -1.300000 2.300000 -0.400000
v -1.300000 2.300000 0.400000
v -2.109011 2.148214 0.265766
v -2.116710 2.041071 -0.310606
v 1.416451 1.435990 -0.164279
v 1.416450 1.435990 0.635721
v 1.388858 2.182013 -0.396036
v 1.388858 2.182013 0.403964
v 2.216450 1.435990 -0.164279
v 2.216450 1.435990 0.635721
v 2.188859 2.182013 -0.396036
v 2.188858 2.182013 0.403964
v 1.355746 -1.585901 -0.431620
v 1.323727 -1.597474 0.367655
v 2.148179 -1.691431 -0.401403
v 2.116160 -1.703004 0.397872
v 1.250749 -2.378826 -0.447307
v 1.218730 -2.390399 0.351968
v 2.043182 -2.484356 -0.417090
v 2.011163 -2.495928 0.382185
v -1.022822 -1.366845 -0.508206
v -1.054841 -1.378418 0.291069
v -1.127820 -2.159770 -0.523893
v -1.159839 -2.171343 0.275382
vt 0.4044 0.4509
vt 0.3729 0.4069
vt 0.4044 0.3957
vt 0.4170 0.2042
vt 0.3850 0.2335
vt 0.3774 0.2087
vt 0.0294 0.4129
vt 0.0870 0.2523
vt 0.0870 0.4104
vt 0.4040 0.3940
vt 0.3668 0.2441
vt 0.4040 0.2353
vt 0.3642 0.0511
vt 0.4170 0.0534
vt 0.1942 0.0511
vt 0.2244 0.2144
vt 0.1846 0.2130
vt 0.2034 0.3972
vt 0.1677 0.3588
vt 0.2076 0.3589
vt 0.1831 0.2507
vt 0.1268 0.2898
vt 0.0951 0.2507
vt 0.1278 0.2520
vt 0.2281 0.7871
vt 0.1145 0.7419
vt 0.2295 0.7494
vt 0.2913 0.2249
vt 0.3642 0.0887
vt 0.3300 0.2341
vt 0.4080 0.6999
vt 0.4479 0.5918
vt 0.4479 0.6999
vt 0.4170 0.3887
vt 0.4567 0.2757
vt 0.4567 0.3847
vt 0.1319 0.8252
vt 0.1728 0.9356
vt 0.1348 0.9333
vt 0.3642 0.4558
vt 0.4142 0.2353
vt 0.0471 0.2507
vt 0.3642 0.3957
vt 0.2231 0.0556
vt 0.1746 0.3969
vt 0.2244 0.2398
vt 0.0870 0.2888
vt 0.1142 0.7775
vt 0.0693 0.2412
vt 0.0297 0.2041
vt 0.0696 0.2055
vt 0.4080 0.5918
vt 0.4170 0.2797
vt 0.1717 0.8261
vt 0.4192 0.0878
vt 0.4452 0.0511
vt 0.4591 0.0854
vt 0.3041 0.4114
vt 0.3412 0.4004
vt 0.3412 0.4382
vt 0.3194 0.2686
vt 0.2807 0.2595
vt 0.1677 0.3972
vt 0.2076 0.4349
vt 0.1677 0.4349
vt 0.2642 0.2688
vt 0.3041 0.3063
vt 0.2642 0.3064
vt 0.2642 0.2721
vt 0.2245 0.4104
vt 0.2244 0.2686
vt 0.4170 0.2387
vt 0.1677 0.2507
vt 0.1289 0.3920
vt 0.1278 0.2512
vt 0.3440 0.2687
vt 0.3440 0.3064
vt 0.3490 0.8427
vt 0.3091 0.9371
vt 0.3091 0.8428
vt 0.3242 0.0888
vt 0.3642 0.0511
vt 0.4568 0.2361
vt 0.4193 0.2757
vt 0.0870 0.3995
vt 0.1261 0.4370
vt 0.0870 0.4372
vt 0.4569 0.3887
vt 0.4170 0.4808
vt 0.4170 0.3888
vt 0.3692 0.6251
vt 0.2694 0.5875
vt 0.3692 0.5875
vt 0.3548 0.6676
vt 0.3149 0.7615
vt 0.3149 0.6675
vt 0.0294 0.2398
vt 0.2076 0.3972
vt 0.3041 0.2686
vt 0.2642 0.4141
vt 0.1677 0.4007
vt 0.3490 0.9369
vt 0.3242 0.0511
vt 0.4591 0.2731
vt 0.1261 0.3993
vt 0.4569 0.4806
vt 0.2694 0.6252
vt 0.3548 0.7616
vn -0.0968 -0.9906 0.0968
vn -0.9995 -0.0309 -0.0000
vn 0.9796 0.0351 -0.1979
vn 0.3189 0.0523 0.9463
vn -0.9973 -0.0534 0.0501
vn 0.0000 0.0587 -0.9983
vn -0.3022 0.9532 -0.0000
vn 0.0000 0.0000 -1.0000
vn -0.0000 0.2028 0.9792
vn 0.0865 0.0000 -0.9963
vn -0.0000 -0.0756 0.9971
vn 0.0438 0.9990 0.0000
vn -0.0236 -0.9997 0.0000
vn 0.0116 0.2970 0.9548
vn -0.1692 -0.9709 0.1692
vn -0.9998 -0.0107 0.0153
vn 0.9998 -0.0216 0.0000
vn -0.0000 0.1165 0.9932
vn -0.9990 -0.0439 -0.0000
vn -0.5268 -0.0575 -0.8481
vn -0.1527 0.9720 -0.1786
vn -0.1563 0.1563 -0.9753
vn -0.1637 0.0000 0.9865
vn -0.0116 -0.2970 -0.9548
vn 0.0000 -0.2967 -0.9550
vn -0.0865 0.0000 0.9963
vn 0.9993 0.0370 0.0000
vn -0.0000 0.2967 0.9550
vn 0.0000 1.0000 0.0000
vn 0.0400 0.0145 -0.9991
vn -0.9995 0.0306 -0.0000
vn 0.9998 -0.0218 0.0000
vn 0.0000 0.0881 -0.9961
vn -0.1312 -0.9912 -0.0196
vn 0.0336 0.0153 -0.9993
vn -0.0400 -0.0145 0.9991
vn 0.9905 -0.1319 0.0378
vn -0.9905 0.1319 -0.0378
vn 0.0911 0.9957 0.0181
vn -0.0336 -0.0153 0.9993
vn -0.0911 -0.9957 -0.0181
vn -0.0495 -0.0864 0.9950
vn -0.9989 0.0236 -0.0397
vn 0.9986 -0.0349 0.0395
vn 0.0479 0.0745 -0.9961
s off
f 2/1/1 4/2/1 1/3/1
f 7/4/2 12/5/2 8/6/2
f 1/7/3 6/8/3 2/9/3
f 6/10/4 3/11/4 2/12/4
f 7/4/5 4/13/5 3/14/5
f 1/15/6 8/16/6 5/17/6
f 12/18/7 10/19/7 9/20/7
f 8/16/8 9/21/8 5/17/8
f 6/22/9 11/23/9 7/24/9
f 9/25/10 13/26/10 5/27/10
f 14/28/11 24/29/11 18/30/11
f 10/31/12 15/32/12 9/33/12
f 5/34/13 14/35/13 6/36/13
f 10/37/14 14/38/14 16/39/14
f 2/1/15 3/40/15 4/2/15
f 7/4/16 11/41/16 12/5/16
f 1/7/17 5/42/17 6/8/17
f 6/10/18 7/43/18 3/11/18
f 7/4/19 8/6/19 4/13/19
f 1/15/20 4/44/20 8/16/20
f 12/18/21 11/45/21 10/19/21
f 8/16/22 12/46/22 9/21/22
f 6/22/23 10/47/23 11/23/23
f 9/25/24 15/48/24 13/26/24
f 15/49/25 17/50/25 13/51/25
f 10/31/12 16/52/12 15/32/12
f 5/34/13 13/53/13 14/35/13
f 10/37/26 6/54/26 14/38/26
f 17/55/27 20/56/27 18/57/27
f 17/58/27 19/59/27 20/60/27
f 14/28/28 20/61/28 16/62/28
f 16/63/29 19/64/29 15/65/29
f 23/66/30 25/67/30 21/68/30
f 13/69/31 22/70/31 14/71/31
f 18/57/32 23/72/32 17/55/32
f 17/73/33 21/74/33 13/75/33
f 25/67/34 28/76/34 26/77/34
f 25/78/35 29/79/35 21/80/35
f 22/81/36 28/82/36 24/29/36
f 24/83/37 27/84/37 23/72/37
f 29/85/38 32/86/38 30/87/38
f 21/88/39 30/89/39 22/90/39
f 22/91/40 32/92/40 26/93/40
f 26/94/41 31/95/41 25/96/41
f 14/28/42 22/81/42 24/29/42
f 15/49/25 19/97/25 17/50/25
f 14/28/28 18/30/28 20/61/28
f 16/63/29 20/98/29 19/64/29
f 23/66/30 27/99/30 25/67/30
f 13/69/43 21/100/43 22/70/43
f 18/57/44 24/83/44 23/72/44
f 17/73/45 23/101/45 21/74/45
f 25/67/34 27/99/34 28/76/34
f 25/78/35 31/102/35 29/79/35
f 22/81/36 26/103/36 28/82/36
f 24/83/37 28/104/37 27/84/37
f 29/85/38 31/105/38 32/86/38
f 21/88/39 29/106/39 30/89/39
f 22/91/40 30/107/40 32/92/40
f 26/94/41 32/108/41 31/95/41
