# Blender v2.78 (sub 0) OBJ File: 'Ray Skipper.blend'
# www.blender.org
mtllib Ray Skipper.mtl
g Ray_Skipper
v -0.140000 -0.000000 -0.640000
v -0.060000 -0.000000 -0.500000
v 0.060000 -0.000000 -0.500000
v -0.240000 -0.000000 -0.200000
v -0.240000 -0.000000 0.400000
v -0.150000 0.040000 0.700000
v -0.300000 0.040000 -0.200000
v -0.300000 -0.040000 -0.200000
v -0.500000 -0.100000 -0.100000
v -0.300000 0.040000 0.400000
v -0.300000 -0.040000 0.400000
v -0.400000 -0.000000 0.300000
v -0.140000 -0.000000 -0.840000
v -0.200000 0.030000 -0.840000
v -0.200000 -0.030000 -0.840000
v -0.310000 0.100000 -0.790000
v -0.200000 0.030000 -0.640000
v -0.200000 -0.030000 -0.640000
v -0.600000 0.300000 -1.040000
v -0.417500 0.300000 -0.677500
v -1.040000 -0.000000 -0.090000
v -0.600000 0.220000 -1.040000
v -0.417500 0.220000 -0.677500
v 0.000000 -0.140000 -0.640000
v 0.000000 -0.140000 -0.840000
v 0.140000 -0.000000 -0.640000
v 0.000000 0.140000 -0.840000
v 0.000000 0.140000 -0.640000
v 0.060000 -0.000000 -0.500000
v 0.000000 -0.000000 -0.980000
v -0.060000 -0.000000 -0.500000
v 0.000000 -0.060000 -0.500000
v 0.000000 0.060000 -0.500000
v 0.240000 -0.000000 -0.200000
v 0.000000 -0.120000 -0.200000
v 0.000000 0.140000 -0.200000
v 0.240000 -0.000000 0.400000
v -0.000000 -0.120000 0.400000
v -0.000000 0.090000 0.400000
v 0.150000 0.040000 0.700000
v -0.000000 -0.070000 0.900000
v 0.300000 0.040000 -0.200000
v 0.300000 -0.040000 -0.200000
v 0.500000 -0.100000 -0.100000
v 0.300000 0.040000 0.400000
v 0.300000 -0.040000 0.400000
v 0.400000 -0.000000 0.300000
v -0.000000 0.040000 0.700000
v 0.140000 -0.000000 -0.840000
v 0.200000 0.030000 -0.840000
v 0.200000 -0.030000 -0.840000
v 0.310000 0.100000 -0.790000
v 0.200000 0.030000 -0.640000
v 0.200000 -0.030000 -0.640000
v 0.600000 0.300000 -1.040000
v 0.417500 0.300000 -0.677500
v 1.040000 -0.000000 -0.090000
v 0.600000 0.220000 -1.040000
v 0.417500 0.220000 -0.677500
vt 0.1557 0.8274
vt 0.0392 0.9265
vt 0.0436 0.8205
vt 0.1169 0.3144
vt 0.2335 0.2073
vt 0.2350 0.3126
vt 0.8250 0.1999
vt 0.7130 0.1930
vt 0.7588 0.1184
vt 0.8068 0.1214
vt 0.1513 0.9334
vt 0.1153 0.2092
vt 0.7050 0.2603
vt 0.8232 0.2584
vt 0.7915 0.3373
vt 0.7409 0.3381
vt 0.2413 0.2495
vt 0.2920 0.2487
vt 0.3189 0.4027
vt 0.1655 0.3981
vt 0.1375 0.7489
vt 0.0895 0.7459
vt 0.0000 0.5879
vt 0.1655 0.5942
vt 0.5838 0.0582
vt 0.6847 0.0612
vt 0.6878 0.2687
vt 0.5869 0.2657
vt 0.6079 0.4602
vt 0.5074 0.4564
vt 0.5155 0.2634
vt 0.6079 0.2656
vt 0.5552 0.1679
vt 0.5887 0.0996
vt 0.6038 0.1675
vt 0.6594 0.7106
vt 0.7395 0.7099
vt 0.7462 0.8716
vt 0.4939 0.7176
vt 0.4646 0.7323
vt 0.4635 0.6946
vt 0.0452 0.7708
vt 0.0853 0.6563
vt 0.0853 0.7939
vt 0.3590 0.7248
vt 0.3147 0.7407
vt 0.3235 0.7031
vt 0.2876 0.8981
vt 0.3320 0.8823
vt 0.3320 0.9397
vt 0.4121 0.5410
vt 0.4539 0.5409
vt 0.4539 0.8605
vt 0.4121 0.8606
vt 0.2414 0.6455
vt 0.2845 0.6454
vt 0.2845 0.9636
vt 0.2414 0.9637
vt 0.2876 0.5942
vt 0.3638 0.8071
vt 0.2414 0.9635
vt 0.0972 0.9087
vt 0.1773 0.6989
vt 0.2414 0.6454
vt 0.6908 0.3537
vt 0.6924 0.3887
vt 0.6596 0.3695
vt 0.6924 0.2805
vt 0.8760 0.3925
vt 0.8760 0.4244
vt 0.8402 0.4085
vt 0.7914 0.2942
vt 0.8161 0.2973
vt 0.8623 0.3948
vt 0.4635 0.7323
vt 0.4935 0.7323
vt 0.4935 0.8388
vt 0.4635 0.8389
vt 0.8739 0.2937
vt 0.8343 0.2942
vt 0.8343 0.1882
vt 0.8739 0.1876
vt 0.7566 0.3948
vt 0.7566 0.2681
vt 0.6617 0.0740
vt 0.6617 0.4667
vt 0.5318 0.1618
vt 0.4635 0.7928
vt 0.3236 0.7731
vt 0.4635 0.5800
vt 0.6763 0.4601
vt 0.5269 0.3581
vt 0.6763 0.0137
vt 0.7534 0.1131
vt 0.7059 0.1083
vt 0.8402 0.0000
vt 0.8402 0.4646
vt 0.7980 0.2871
vt 0.7980 0.4520
vt 0.7083 0.4339
vt 0.9672 0.3925
vt 0.8402 0.3502
vt 0.8875 0.3444
vt 0.9672 0.0000
vt 0.6769 0.4437
vt 0.6034 0.3742
vt 0.0436 0.8205
vt 0.0392 0.9265
vt 0.1169 0.3144
vt 0.7588 0.1184
vt 0.7130 0.1930
vt 0.1153 0.2092
vt 0.7050 0.2603
vt 0.7409 0.3381
vt 0.2413 0.2495
vt 0.1655 0.3981
vt 0.0000 0.5879
vt 0.0895 0.7459
vt 0.5838 0.0582
vt 0.5869 0.2657
vt 0.5155 0.2634
vt 0.5074 0.4564
vt 0.5552 0.1679
vt 0.6594 0.7106
vt 0.4939 0.7176
vt 0.4635 0.6946
vt 0.4646 0.7323
vt 0.0452 0.7708
vt 0.0853 0.7939
vt 0.0853 0.6563
vt 0.3590 0.7248
vt 0.3235 0.7031
vt 0.3147 0.7407
vt 0.2876 0.8981
vt 0.3320 0.9397
vt 0.3320 0.8823
vt 0.4121 0.5410
vt 0.4121 0.8606
vt 0.4539 0.8605
vt 0.4539 0.5409
vt 0.2414 0.6455
vt 0.2414 0.9637
vt 0.2845 0.9636
vt 0.2845 0.6454
vt 0.2876 0.5942
vt 0.3638 0.8071
vt 0.2414 0.9635
vt 0.2414 0.6454
vt 0.1773 0.6989
vt 0.0972 0.9087
vt 0.6908 0.3537
vt 0.6596 0.3695
vt 0.6924 0.3887
vt 0.6924 0.2805
vt 0.8760 0.3925
vt 0.8402 0.4085
vt 0.8760 0.4244
vt 0.7914 0.2942
vt 0.8623 0.3948
vt 0.8161 0.2973
vt 0.4635 0.7323
vt 0.4635 0.8389
vt 0.4935 0.8388
vt 0.4935 0.7323
vt 0.8739 0.2937
vt 0.8739 0.1876
vt 0.8343 0.1882
vt 0.8343 0.2942
vt 0.7566 0.3948
vt 0.7566 0.2681
vt 0.6617 0.0740
vt 0.5318 0.1618
vt 0.6617 0.4667
vt 0.4635 0.7928
vt 0.4635 0.5800
vt 0.3236 0.7731
vt 0.6763 0.4601
vt 0.6763 0.0137
vt 0.5269 0.3581
vt 0.7534 0.1131
vt 0.8402 0.0000
vt 0.7059 0.1083
vt 0.8402 0.4646
vt 0.7980 0.2871
vt 0.7083 0.4339
vt 0.7980 0.4520
vt 0.9672 0.3925
vt 0.8875 0.3444
vt 0.8402 0.3502
vt 0.9672 0.0000
vt 0.6034 0.3742
vt 0.8216 0.1532
vt 0.7034 0.1551
vt 0.7632 0.0886
vt 0.7085 0.2990
vt 0.8206 0.3059
vt 0.7802 0.3725
vt 0.7034 0.1551
vt 0.7085 0.2990
vn -0.7071 0.7071 0.0000
vn -0.7071 -0.7071 -0.0000
vn -0.6556 0.6556 0.3746
vn -0.6556 -0.6556 0.3746
vn -0.5003 -0.8338 -0.2335
vn -0.5345 0.8018 -0.2673
vn -0.4472 -0.8944 0.0000
vn -0.4318 0.9012 0.0375
vn -0.3511 0.9362 -0.0195
vn 0.0000 0.8762 0.4819
vn 0.0000 0.9864 0.1644
vn 0.0000 0.0000 -1.0000
vn -0.4472 0.0000 -0.8944
vn 0.0000 0.0000 1.0000
vn -0.7071 0.0000 0.7071
vn 0.5547 -0.8321 0.0000
vn 0.5547 0.8321 -0.0000
vn 0.0662 -0.9935 0.0927
vn -0.5142 0.8570 -0.0343
vn -0.4138 0.0000 -0.9104
vn -0.8064 0.0000 0.5914
vn 0.4472 -0.8944 0.0000
vn 0.4472 0.8944 0.0000
vn -0.7634 -0.6459 0.0000
vn 0.5369 0.8437 0.0000
vn -0.3068 0.9391 0.1545
vn 0.7204 0.5912 -0.3627
vn 0.2314 -0.9659 -0.1165
vn 0.6529 -0.0000 -0.7574
vn -0.9074 -0.0000 -0.4203
vn -0.5657 -0.7738 0.2848
vn 0.7230 0.0000 0.6909
vn 0.6864 0.0000 0.7273
vn -0.4454 -0.8909 0.0891
vn -0.7945 -0.5232 0.3081
vn 0.7071 0.7071 0.0000
vn 0.7071 -0.7071 0.0000
vn 0.6556 0.6556 0.3746
vn 0.6556 -0.6556 0.3746
vn 0.5003 -0.8338 -0.2335
vn 0.5345 0.8018 -0.2673
vn 0.4318 0.9012 0.0375
vn 0.3511 0.9362 -0.0195
vn 0.4472 0.0000 -0.8944
vn 0.7071 0.0000 0.7071
vn -0.5547 -0.8321 0.0000
vn -0.5547 0.8321 -0.0000
vn -0.0662 -0.9935 0.0927
vn 0.5142 0.8570 -0.0343
vn 0.4138 0.0000 -0.9104
vn 0.8064 0.0000 0.5914
vn -0.4472 0.8944 0.0000
vn 0.7634 -0.6459 0.0000
vn -0.5369 0.8437 0.0000
vn 0.3068 0.9391 0.1545
vn -0.7204 0.5912 -0.3627
vn -0.2314 -0.9659 -0.1165
vn -0.6529 -0.0000 -0.7574
vn 0.9074 -0.0000 -0.4203
vn 0.5657 -0.7738 0.2848
vn -0.7230 0.0000 0.6909
vn -0.6864 0.0000 0.7273
vn 0.4454 -0.8909 0.0891
vn 0.7945 -0.5232 0.3081
vn -0.5774 -0.5774 -0.5774
vn -0.5774 0.5774 -0.5774
vn 0.5774 -0.5774 -0.5774
vn 0.5774 0.5774 -0.5774
usemtl Material
s off
f 28/1/1 13/2/1 1/3/1
f 1/4/2 25/5/2 24/6/2
f 28/7/3 1/8/3 2/9/3 33/10/3
f 28/1/1 27/11/1 13/2/1
f 1/4/2 13/12/2 25/5/2
f 1/13/4 24/14/4 32/15/4 2/16/4
f 2/17/5 32/18/5 35/19/5 4/20/5
f 33/21/6 2/22/6 4/23/6 36/24/6
f 4/25/7 35/26/7 38/27/7 5/28/7
f 36/29/8 4/30/8 5/31/8 39/32/8
f 5/31/9 6/33/9 39/32/9
f 41/34/10 48/35/10 6/33/10
f 6/36/11 48/37/11 39/38/11
f 7/39/12 4/40/12 8/41/12
f 8/42/13 9/43/13 7/44/13
f 10/45/14 11/46/14 5/47/14
f 11/48/15 10/49/15 12/50/15
f 8/51/16 4/52/16 5/53/16 11/54/16
f 4/55/17 7/56/17 10/57/17 5/58/17
f 9/59/18 8/51/18 11/54/18 12/60/18
f 7/61/19 9/62/19 12/63/19 10/64/19
f 14/65/12 13/66/12 15/67/12
f 15/67/20 16/68/20 14/65/20
f 17/69/14 18/70/14 1/71/14
f 18/72/21 17/73/21 16/74/21
f 15/75/22 13/76/22 1/77/22 18/78/22
f 13/79/23 14/80/23 17/81/23 1/82/23
f 16/74/24 15/83/24 18/72/24
f 14/80/25 16/84/25 17/81/25
f 19/85/26 21/86/26 20/87/26
f 20/88/27 16/89/27 19/90/27
f 22/91/28 23/92/28 21/93/28
f 22/94/29 19/95/29 16/96/29
f 22/94/30 21/97/30 19/95/30
f 22/98/31 16/99/31 23/100/31
f 16/101/32 20/102/32 23/103/32
f 23/103/33 20/102/33 21/104/33
f 5/28/34 38/27/34 41/105/34
f 5/28/35 41/105/35 6/106/35
f 28/1/36 26/107/36 49/108/36
f 26/109/37 24/6/37 25/5/37
f 28/7/38 33/10/38 29/110/38 26/111/38
f 28/1/36 49/108/36 27/11/36
f 26/109/37 25/5/37 49/112/37
f 26/113/39 29/114/39 32/15/39 24/14/39
f 29/115/40 34/116/40 35/19/40 32/18/40
f 33/21/41 36/24/41 34/117/41 29/118/41
f 34/119/22 37/120/22 38/27/22 35/26/22
f 36/29/42 39/32/42 37/121/42 34/122/42
f 37/121/43 39/32/43 40/123/43
f 41/34/10 40/123/10 48/35/10
f 40/124/11 39/38/11 48/37/11
f 42/125/12 43/126/12 34/127/12
f 43/128/44 42/129/44 44/130/44
f 45/131/14 37/132/14 46/133/14
f 46/134/45 47/135/45 45/136/45
f 43/137/46 46/138/46 37/139/46 34/140/46
f 34/141/47 37/142/47 45/143/47 42/144/47
f 44/145/48 47/146/48 46/138/48 43/137/48
f 42/147/49 45/148/49 47/149/49 44/150/49
f 50/151/12 51/152/12 49/153/12
f 51/152/50 50/151/50 52/154/50
f 53/155/14 26/156/14 54/157/14
f 54/158/51 52/159/51 53/160/51
f 51/161/7 54/162/7 26/163/7 49/164/7
f 49/165/52 26/166/52 53/167/52 50/168/52
f 52/159/53 54/158/53 51/169/53
f 50/168/54 53/167/54 52/170/54
f 55/171/55 56/172/55 57/173/55
f 56/174/56 55/175/56 52/176/56
f 58/177/57 57/178/57 59/179/57
f 58/180/58 52/181/58 55/182/58
f 58/180/59 55/182/59 57/183/59
f 58/184/60 59/185/60 52/186/60
f 52/187/61 59/188/61 56/189/61
f 59/188/62 57/190/62 56/189/62
f 37/120/63 41/105/63 38/27/63
f 37/120/64 40/191/64 41/105/64
usemtl Engine
f 25/192/65 13/193/65 30/194/65
f 13/195/66 27/196/66 30/197/66
f 25/192/67 30/194/67 49/198/67
f 49/199/68 30/197/68 27/196/68
