# Blender v2.78 (sub 0) OBJ File: 'Ray Dagger 2.blend'
# www.blender.org
mtllib Ray Dagger 2.mtl
g RayDagger
v -0.300000 -0.000000 -0.540000
v -0.040000 -0.000000 -0.100000
v -0.192000 -0.090000 0.020000
v -0.192000 -0.090000 0.500000
v -0.120000 -0.058000 0.740000
v -0.240000 -0.058000 0.020000
v -0.240000 -0.122000 0.020000
v -0.400000 -0.170000 0.100000
v -0.240000 -0.058000 0.500000
v -0.240000 -0.122000 0.500000
v -0.320000 -0.090000 0.420000
v -0.300000 -0.000000 -0.740000
v -0.360000 0.030000 -0.740000
v -0.360000 -0.030000 -0.740000
v -0.360000 0.030000 -0.540000
v -0.360000 -0.030000 -0.540000
v -0.760000 0.300000 -0.940000
v -0.577500 0.300000 -0.577500
v -1.200000 -0.000000 0.010000
v -0.760000 0.220000 -0.940000
v -0.577500 0.220000 -0.577500
v -0.120000 -0.000000 -0.940000
v 0.000000 -0.220000 -0.540000
v 0.000000 -0.220000 -0.740000
v 0.300000 -0.000000 -0.540000
v 0.000000 0.220000 -0.740000
v 0.000000 0.220000 -0.540000
v 0.040000 -0.000000 -0.100000
v 0.000000 -0.100000 -0.940000
v 0.000000 0.060000 -0.100000
v 0.192000 -0.090000 0.020000
v 0.000000 -0.186000 0.020000
v -0.000000 0.022000 0.020000
v 0.192000 -0.090000 0.500000
v -0.000000 -0.186000 0.500000
v -0.000000 -0.018000 0.500000
v 0.120000 -0.058000 0.740000
v -0.000000 -0.146000 0.900000
v 0.240000 -0.058000 0.020000
v 0.240000 -0.122000 0.020000
v 0.400000 -0.170000 0.100000
v 0.240000 -0.058000 0.500000
v 0.240000 -0.122000 0.500000
v 0.320000 -0.090000 0.420000
v -0.000000 -0.058000 0.740000
v 0.300000 -0.000000 -0.740000
v 0.360000 0.030000 -0.740000
v 0.360000 -0.030000 -0.740000
v 0.360000 0.030000 -0.540000
v 0.360000 -0.030000 -0.540000
v 0.760000 0.300000 -0.940000
v 0.577500 0.300000 -0.577500
v 1.200000 -0.000000 0.010000
v 0.760000 0.220000 -0.940000
v 0.577500 0.220000 -0.577500
v 0.000000 0.100000 -0.940000
v 0.120000 -0.000000 -0.940000
vt 0.6223 0.3434
vt 0.6132 0.4415
vt 0.5430 0.4595
vt 0.9102 0.2442
vt 0.9729 0.2105
vt 0.9729 0.2442
vt 0.6239 0.5806
vt 0.7067 0.5806
vt 0.6604 0.6819
vt 0.6447 0.6810
vt 0.5210 0.1704
vt 0.7972 0.2323
vt 0.6571 0.4595
vt 0.9102 0.2105
vt 0.9347 0.1723
vt 0.9610 0.1730
vt 0.5510 0.2906
vt 0.5892 0.2071
vt 0.5834 0.3113
vt 0.5892 0.1704
vt 0.5340 0.1296
vt 0.5626 0.1288
vt 0.9339 0.3386
vt 0.5382 0.2899
vt 0.5430 0.3122
vt 0.9701 0.3387
vt 0.9698 0.4196
vt 0.9336 0.4195
vt 0.2726 0.6291
vt 0.1731 0.6824
vt 0.1166 0.6792
vt 0.5858 0.3986
vt 0.5727 0.4427
vt 0.5485 0.3996
vt 0.5527 0.4770
vt 0.5509 0.4438
vt 0.0235 0.8903
vt 0.0117 0.8310
vt 0.0627 0.8491
vt 0.1963 0.8932
vt 0.2568 0.5290
vt 0.2236 0.5626
vt 0.2003 0.5257
vt 0.2728 0.6257
vt 0.2385 0.6699
vt 0.4470 0.5129
vt 0.3227 0.9418
vt 0.3598 0.9496
vt 0.3401 0.5566
vt 0.6095 0.4775
vt 0.3873 0.7384
vt 0.2466 0.6453
vt 0.4764 0.6628
vt 0.7699 0.3994
vt 0.7490 0.4517
vt 0.6639 0.3258
vt 0.7187 0.3406
vt 0.7865 0.3202
vt 0.5236 0.4747
vt 0.7330 0.2747
vt 0.6461 0.1023
vt 0.7231 0.2499
vt 0.8111 0.3308
vt 0.9666 0.4873
vt 0.9402 0.4616
vt 0.5566 0.3027
vt 0.7741 0.1796
vt 0.7889 0.2039
vt 0.7005 0.2111
vt 0.5550 0.2527
vt 0.5394 0.4732
vt 0.6429 0.3299
vt 0.0215 0.5332
vt 0.3669 0.5618
vt 0.0371 0.5625
vt 0.3856 0.0537
vt 0.2047 0.1022
vt 0.3907 0.0884
vt 0.5430 0.4595
vt 0.6132 0.4415
vt 0.9102 0.2442
vt 0.6604 0.6819
vt 0.7067 0.5806
vt 0.7972 0.2323
vt 0.9102 0.2105
vt 0.9347 0.1723
vt 0.5510 0.2906
vt 0.5834 0.3113
vt 0.5892 0.2071
vt 0.5892 0.1704
vt 0.5626 0.1288
vt 0.9339 0.3386
vt 0.9336 0.4195
vt 0.1166 0.6792
vt 0.1731 0.6824
vt 0.5858 0.3986
vt 0.5727 0.4427
vt 0.0235 0.8903
vt 0.0627 0.8491
vt 0.0117 0.8310
vt 0.1963 0.8932
vt 0.2568 0.5290
vt 0.2003 0.5257
vt 0.2236 0.5626
vt 0.2728 0.6257
vt 0.2385 0.6699
vt 0.3227 0.9418
vt 0.3598 0.9496
vt 0.3401 0.5566
vt 0.6095 0.4775
vt 0.3873 0.7384
vt 0.4764 0.6628
vt 0.2466 0.6453
vt 0.7699 0.3994
vt 0.7187 0.3406
vt 0.6639 0.3258
vt 0.7490 0.4517
vt 0.7865 0.3202
vt 0.7330 0.2747
vt 0.5236 0.4747
vt 0.6461 0.1023
vt 0.7231 0.2499
vt 0.8111 0.3308
vt 0.9402 0.4616
vt 0.5566 0.3027
vt 0.7741 0.1796
vt 0.7889 0.2039
vt 0.7005 0.2111
vt 0.5550 0.2527
vt 0.5394 0.4732
vt 0.6429 0.3299
vt 0.3856 0.0537
vt 0.3907 0.0884
vt 0.9437 0.0955
vt 0.8511 0.1396
vt 0.8556 0.0504
vt 0.8779 0.0114
vt 0.9881 0.0125
vt 0.9885 0.1228
vt 0.8361 0.1637
vt 0.9437 0.0955
vt 0.8556 0.0504
vt 0.8511 0.1396
vt 0.8779 0.0114
vt 0.8361 0.1637
vn 0.0000 -0.0000 1.0000
vn -0.5914 -0.8064 -0.0000
vn -0.6040 0.7334 0.3118
vn -0.4668 0.8844 0.0000
vn -0.5396 -0.7082 -0.4553
vn -0.3655 0.9054 0.2160
vn -0.5396 0.7082 -0.4553
vn -0.5913 -0.8063 -0.0156
vn -0.5948 0.8023 0.0512
vn -0.4472 -0.8944 0.0000
vn -0.3511 0.9362 -0.0195
vn 0.0000 0.8762 0.4819
vn 0.0000 0.9864 0.1644
vn -0.0000 0.0000 -1.0000
vn -0.4472 0.0000 -0.8944
vn -0.7071 0.0000 0.7071
vn 0.5547 -0.8320 0.0000
vn -0.1644 0.9864 0.0000
vn 0.0662 -0.9935 0.0927
vn -0.5142 0.8570 -0.0343
vn 0.7465 0.5491 -0.3758
vn 0.4472 -0.8944 0.0000
vn -0.3068 0.9391 0.1545
vn 0.2314 -0.9659 -0.1165
vn -0.9074 -0.0000 -0.4203
vn 0.6864 0.0000 0.7273
vn -0.4454 -0.8909 0.0891
vn -0.7945 -0.5232 0.3081
vn -0.4466 -0.8931 0.0542
vn 0.5595 0.8288 0.0000
vn 0.4472 -0.0000 -0.8944
vn -0.5300 -0.8480 0.0000
vn -0.7284 -0.5787 0.3667
vn -0.1699 0.0000 0.9855
vn -0.3152 0.9457 0.0788
vn 0.5914 -0.8064 -0.0000
vn 0.6040 0.7334 0.3118
vn 0.4668 0.8844 0.0000
vn 0.5396 -0.7082 -0.4553
vn 0.3655 0.9054 0.2160
vn 0.5396 0.7082 -0.4553
vn 0.5913 -0.8063 -0.0156
vn 0.5948 0.8023 0.0512
vn 0.3511 0.9362 -0.0195
vn 0.7071 0.0000 0.7071
vn -0.5547 -0.8320 0.0000
vn 0.1644 0.9864 0.0000
vn -0.0662 -0.9935 0.0927
vn 0.5142 0.8570 -0.0343
vn -0.7465 0.5491 -0.3758
vn 0.3068 0.9391 0.1545
vn -0.2314 -0.9659 -0.1165
vn 0.9074 -0.0000 -0.4203
vn -0.6864 0.0000 0.7273
vn 0.4454 -0.8909 0.0891
vn 0.7945 -0.5232 0.3081
vn 0.4466 -0.8931 0.0542
vn -0.5595 0.8288 0.0000
vn 0.5300 -0.8480 0.0000
vn 0.7284 -0.5787 0.3667
vn 0.1699 0.0000 0.9855
vn 0.3152 0.9457 0.0788
usemtl Material
s off
f 27/1/1 15/2/1 1/3/1
f 1/4/2 24/5/2 23/6/2
f 27/7/3 1/8/3 2/9/3 30/10/3
f 26/11/4 13/12/4 27/13/4
f 1/4/2 12/14/2 24/5/2
f 24/5/5 12/14/5 22/15/5 29/16/5
f 2/17/6 1/18/6 3/19/6
f 12/20/7 26/11/7 56/21/7 22/22/7
f 1/4/8 23/6/8 3/23/8
f 30/24/9 2/17/9 3/19/9 33/25/9
f 3/23/10 32/26/10 35/27/10 4/28/10
f 36/29/1 9/30/1 4/31/1
f 4/32/11 5/33/11 36/34/11
f 38/35/12 45/36/12 5/33/12
f 5/33/13 45/36/13 36/34/13
f 6/37/14 3/38/14 7/39/14
f 7/39/15 8/40/15 6/37/15
f 9/41/1 10/42/1 4/43/1
f 10/42/16 9/41/16 11/44/16
f 7/39/17 3/38/17 4/43/17 10/42/17
f 9/45/18 36/46/18 6/47/18
f 8/40/19 7/39/19 10/42/19 11/44/19
f 6/48/20 8/40/20 11/44/20 9/49/20
f 15/2/1 16/50/1 1/3/1
f 18/51/21 15/52/21 17/53/21
f 14/54/22 12/55/22 1/56/22 16/57/22
f 17/58/23 19/59/23 18/60/23
f 20/61/24 21/62/24 19/59/24
f 20/63/25 19/59/25 17/58/25
f 21/62/26 18/60/26 19/59/26
f 4/28/27 35/27/27 38/64/27
f 4/28/28 38/64/28 5/65/28
f 3/23/29 23/6/29 32/26/29
f 15/66/30 13/67/30 17/58/30
f 17/58/31 13/67/31 20/63/31
f 14/68/32 16/57/32 20/63/32
f 20/63/33 16/57/33 21/62/33
f 18/69/34 21/62/34 15/70/34
f 15/70/34 21/62/34 16/57/34
f 15/71/4 27/13/4 13/72/4
f 33/73/35 6/48/35 36/74/35
f 33/75/14 3/38/14 6/48/14
f 13/76/14 26/77/14 12/78/14
f 27/1/1 25/79/1 49/80/1
f 25/81/36 23/6/36 24/5/36
f 27/7/37 30/10/37 28/82/37 25/83/37
f 26/11/38 27/13/38 47/84/38
f 25/81/36 24/5/36 46/85/36
f 24/5/39 29/16/39 57/86/39 46/85/39
f 28/87/40 31/88/40 25/89/40
f 46/90/41 57/91/41 56/21/41 26/11/41
f 25/81/42 31/92/42 23/6/42
f 30/24/43 33/25/43 31/88/43 28/87/43
f 31/92/22 34/93/22 35/27/22 32/26/22
f 36/29/1 34/94/1 42/95/1
f 34/96/44 36/34/44 37/97/44
f 38/35/12 37/97/12 45/36/12
f 37/97/13 36/34/13 45/36/13
f 39/98/14 40/99/14 31/100/14
f 40/99/31 39/98/31 41/101/31
f 42/102/1 34/103/1 43/104/1
f 43/104/45 44/105/45 42/102/45
f 40/99/46 43/104/46 34/103/46 31/100/46
f 42/106/47 39/107/47 36/46/47
f 41/101/48 44/105/48 43/104/48 40/99/48
f 39/108/49 42/109/49 44/105/49 41/101/49
f 49/80/1 25/79/1 50/110/1
f 52/111/50 51/112/50 49/113/50
f 48/114/10 50/115/10 25/116/10 46/117/10
f 51/118/51 52/119/51 53/120/51
f 54/121/52 53/120/52 55/122/52
f 54/123/53 51/118/53 53/120/53
f 55/122/54 53/120/54 52/119/54
f 34/93/55 38/64/55 35/27/55
f 34/93/56 37/124/56 38/64/56
f 31/92/57 32/26/57 23/6/57
f 49/125/58 51/118/58 47/126/58
f 51/118/15 54/123/15 47/126/15
f 48/127/59 54/123/59 50/115/59
f 54/123/60 55/122/60 50/115/60
f 52/128/61 49/129/61 55/122/61
f 49/129/61 50/115/61 55/122/61
f 49/130/38 47/131/38 27/13/38
f 33/73/62 36/74/62 39/108/62
f 33/75/14 39/108/14 31/100/14
f 47/132/14 46/133/14 26/77/14
usemtl Engine
f 13/134/14 12/135/14 14/136/14
f 22/137/14 56/138/14 29/139/14
f 13/67/31 14/140/31 20/63/31
f 47/141/14 48/142/14 46/143/14
f 57/144/14 29/139/14 56/138/14
f 47/126/15 54/123/15 48/145/15
